<svg width="72" height="68" viewBox="0 0 72 68" fill="none" xmlns="http://www.w3.org/2000/svg">
<path d="M7.14062 68H1.98438C0.828125 68 0.1875 67.3594 0.0625 66.0781V2.5625C0.0625 1.375 0.703125 0.734375 1.98438 0.640625H7.1875C9.09375 0.640625 10.7188 1.34375 12.0625 2.75C13.4062 4.125 14.0781 5.75 14.0781 7.625V60.9688C14.0781 63.0312 13.375 64.7031 11.9688 65.9844C10.5938 67.2656 8.98438 67.9375 7.14062 68ZM7.09375 61.5781C7.4375 61.5781 7.64062 61.375 7.70312 60.9688V7.625C7.70312 7.28125 7.5 7.07812 7.09375 7.01562H6.48438V61.5781H7.09375ZM21.6719 66.0781C21.6719 67.2344 21.0312 67.875 19.75 68H17.1719C16.0156 68 15.375 67.3594 15.25 66.0781V2.60938C15.25 1.42188 15.8906 0.78125 17.1719 0.6875H19.75C20.9375 0.6875 21.5781 1.32813 21.6719 2.60938V66.0781ZM24.0625 7.01562C23.1875 7.01562 22.6875 6.51562 22.5625 5.51562V2.51562C22.5625 1.32813 23.2031 0.6875 24.4844 0.59375H43.6562C44.8438 0.59375 45.4844 1.23438 45.5781 2.51562V5.09375C45.5781 6.25 44.9375 6.89062 43.6562 7.01562H31.9844V66.0781C31.9844 67.2344 31.3438 67.875 30.0625 68H27.4844C26.3281 68 25.6875 67.3594 25.5625 66.0781V7.01562H24.0625ZM42.5312 66.0312C42.5312 67.1875 41.8906 67.8281 40.6094 67.9531H38.0312C36.875 67.9531 36.2344 67.3125 36.1094 66.0312V14.6094H34.6094C33.7344 14.6094 33.2344 14.1094 33.1094 13.1094V10.1094C33.1094 8.92188 33.75 8.28125 35.0312 8.1875H43.6094C44.7969 8.1875 45.4375 8.82813 45.5312 10.1094V13.1094C45.5312 13.9844 45.0312 14.4844 44.0312 14.6094H42.5312V66.0312ZM47.9688 7.01562C47.0938 7.01562 46.5938 6.51562 46.4688 5.51562V2.51562C46.4688 1.32813 47.1094 0.6875 48.3906 0.59375H69.0625C70.25 0.59375 70.8906 1.23438 70.9844 2.51562V5.09375C70.9844 6.25 70.3438 6.89062 69.0625 7.01562H55.8906V66.0781C55.8906 67.2344 55.25 67.875 53.9688 68H51.3906C50.2344 68 49.5938 67.3594 49.4688 66.0781V7.01562H47.9688ZM71.0781 14.6562V66.0312C71.0781 67.1875 70.4375 67.8281 69.1562 67.9531H66.5781C65.4219 67.9531 64.7812 67.3125 64.6562 66.0312V46.4844H63.4844V66.0312C63.4844 67.1875 62.8438 67.8281 61.5625 67.9531H58.9844C57.8281 67.9531 57.1875 67.3125 57.0625 66.0312V14.6562C57.0625 13.25 57.4375 11.9688 58.1875 10.8125C58.9688 9.65625 60.0156 8.78125 61.3281 8.1875C62.2031 7.84375 63.1094 7.67188 64.0469 7.67188C65.0469 7.67188 65.9688 7.84375 66.8125 8.1875C69.6562 9.59375 71.0781 11.75 71.0781 14.6562ZM64.6562 40.5781V14.6562C64.6562 14.3125 64.4531 14.1094 64.0469 14.0469C63.7344 14.0469 63.5469 14.25 63.4844 14.6562V40.5781H64.6562Z" fill="white"/>
</svg>
