<svg width="28" height="16" viewBox="0 0 28 16" fill="none" xmlns="http://www.w3.org/2000/svg">
<path fill-rule="evenodd" clip-rule="evenodd" d="M27.2929 1.08343C27.4826 0.459428 27.2929 0 26.3843 0H23.3843C22.6209 0 22.2689 0.396571 22.0781 0.834286C22.0781 0.834286 20.5523 4.48686 18.3912 6.85943C17.6918 7.54743 17.3741 7.76571 16.9923 7.76571C16.8015 7.76571 16.5146 7.54743 16.5146 6.92229V1.08343C16.5146 0.333714 16.3043 0 15.6689 0H10.9512C10.4746 0 10.1878 0.347428 10.1878 0.677714C10.1878 1.38743 11.2689 1.552 11.3798 3.54971V7.89029C11.3798 8.84229 11.2049 9.01486 10.8232 9.01486C9.80606 9.01486 7.33178 5.34514 5.8632 1.14629C5.57863 0.329143 5.29063 0 4.52378 0H1.52149C0.664349 0 0.49292 0.396571 0.49292 0.834286C0.49292 1.61371 1.51006 5.48571 5.23006 10.6069C7.71006 14.104 11.2015 16 14.3821 16C16.2895 16 16.5249 15.5794 16.5249 14.8537V12.2103C16.5249 11.368 16.7055 11.2 17.3101 11.2C17.7558 11.2 18.5181 11.4194 20.2986 13.1051C22.3329 15.104 22.6678 16 23.8129 16H26.8129C27.6701 16 28.0998 15.5794 27.8529 14.7474C27.5809 13.92 26.6095 12.7189 25.3215 11.2937C24.6221 10.4823 23.5729 9.608 23.2541 9.17029C22.8095 8.60914 22.9363 8.35886 23.2541 7.85943C23.2541 7.85943 26.9112 2.80114 27.2918 1.08343H27.2929Z" fill="white"/>
</svg>
